<?xml version="1.0" standalone="no"?>
<!DOCTYPE svg PUBLIC "-//W3C//DTD SVG 20010904//EN"
 "http://www.w3.org/TR/2001/REC-SVG-20010904/DTD/svg10.dtd">
<svg version="1.0" xmlns="http://www.w3.org/2000/svg"
 width="3103.000000pt" height="2359.000000pt" viewBox="0 0 3103.000000 2359.000000"
 preserveAspectRatio="xMidYMid meet">

<g transform="translate(0.000000,2359.000000) scale(0.100000,-0.100000)"
fill="#000000" stroke="none">
<path d="M6040 23569 c-1301 -37 -2481 -295 -3474 -760 -1108 -519 -1859
-1186 -2256 -2004 -149 -309 -239 -607 -286 -955 -18 -133 -25 -524 -10 -548
5 -9 26 34 61 125 336 891 936 1577 1824 2087 892 513 2119 840 3566 951 406
31 552 36 1095 42 1242 13 2411 -74 3889 -288 1405 -204 3036 -543 4361 -908
140 -38 256 -69 257 -67 5 5 -438 209 -802 371 -610 271 -1153 492 -1710 697
-1954 720 -3672 1119 -5310 1233 -191 13 -854 37 -925 33 -14 -1 -140 -5 -280
-9z"/>
<path d="M7315 21883 c-507 -19 -1119 -82 -1625 -169 -1534 -263 -2933 -837
-3930 -1613 -193 -151 -257 -215 -346 -351 -304 -466 -485 -906 -565 -1370
-30 -177 -38 -554 -15 -730 50 -381 178 -741 390 -1098 368 -618 1015 -1223
1827 -1707 162 -97 467 -260 473 -254 2 2 -28 53 -66 113 -126 197 -240 397
-353 621 -485 956 -625 1795 -429 2568 360 1424 1912 2524 4534 3212 943 248
2203 464 3125 537 85 6 152 15 148 19 -5 4 -114 23 -243 43 -618 94 -1170 148
-1795 176 -196 9 -921 11 -1130 3z"/>
<path d="M6990 20273 c-240 -26 -452 -76 -668 -159 -621 -238 -1108 -503
-1456 -793 -484 -402 -799 -899 -961 -1516 -73 -275 -120 -678 -112 -962 13
-507 108 -1054 269 -1553 64 -197 182 -507 202 -528 9 -9 16 21 29 135 31 257
87 634 112 743 98 435 291 795 530 986 179 144 453 243 915 333 541 105 1113
138 1920 111 1725 -57 2457 -126 3069 -288 113 -29 132 -43 116 -87 -11 -30
-1926 -2563 -1938 -2564 -4 -1 -33 15 -63 34 -120 77 -565 287 -872 412 -214
87 -776 295 -939 347 -370 119 -838 229 -1133 265 -201 26 -483 8 -683 -43
-364 -93 -649 -374 -718 -709 -69 -333 49 -771 334 -1247 314 -523 640 -929
1279 -1590 564 -584 1026 -1008 1763 -1616 391 -322 509 -414 860 -669 601
-437 1230 -865 1662 -1128 48 -30 180 -112 293 -182 377 -234 1091 -650 1445
-840 482 -260 1166 -592 1627 -789 346 -148 838 -335 1225 -466 242 -81 855
-253 1053 -296 667 -144 778 -166 1125 -223 440 -72 678 -94 1015 -94 288 0
433 16 673 77 562 141 952 505 1032 963 13 74 13 90 -5 190 -62 358 -164 622
-350 901 -98 147 -184 249 -363 431 -159 161 -332 318 -547 497 -130 108 -232
187 -730 569 -254 194 -649 478 -855 614 -110 73 -201 139 -203 146 -2 8 -12
17 -23 20 -11 4 -19 10 -17 14 13 34 1319 1813 1340 1825 24 15 287 16 2942
16 l2916 0 34 33 c19 17 380 500 804 1072 423 572 964 1301 1201 1620 l431
580 -5197 3 c-4668 2 -5199 0 -5220 -13 -13 -9 -153 -189 -311 -401 -158 -212
-678 -911 -1157 -1553 -478 -641 -1326 -1778 -1884 -2526 -557 -748 -1022
-1368 -1031 -1379 -21 -22 6 -36 -435 213 -257 146 -894 530 -895 541 0 3 82
111 182 240 712 922 5007 6490 5078 6583 24 32 56 65 71 73 24 12 848 14 6201
14 3395 0 6183 3 6195 6 15 4 500 611 1369 1713 741 938 1378 1743 1416 1787
37 45 68 84 68 88 0 3 -5309 8 -11797 11 -6489 2 -11888 6 -11998 8 -110 2
-216 2 -235 0z m4100 -1358 l0 -165 3613 0 c2321 0 4355 5 5692 15 5933 43
8990 65 9173 65 l202 0 0 -38 0 -39 -652 -6 c-359 -4 -822 -7 -1029 -7 l-376
0 -124 -174 -124 -175 -1657 0 -1658 -1 0 161 0 162 -717 -7 c-1627 -14 -1977
-17 -3268 -27 -943 -7 -1351 -13 -1356 -21 -4 -6 -32 -80 -64 -164 l-57 -154
-1702 0 -1701 -1 -1430 -1851 c-786 -1018 -1728 -2235 -2091 -2706 l-662 -855
144 -164 c89 -102 142 -169 137 -176 -4 -7 -403 -500 -888 -1097 -484 -597
-890 -1098 -902 -1114 -14 -17 -27 -25 -35 -20 -31 18 -409 308 -415 318 -4 6
1 5 11 -3 10 -8 20 -10 25 -5 5 5 408 505 895 1112 490 609 1210 1520 1608
2035 397 513 1357 1754 2135 2759 l1413 1827 0 136 0 135 -4705 0 -4705 0 0
40 0 40 920 0 920 0 0 165 0 165 1715 0 1715 0 0 -165z m-4151 -4634 c7 -5 11
-14 7 -20 -5 -7 -1 -9 9 -4 15 5 15 3 3 -18 -7 -13 -16 -26 -20 -29 -12 -9
-29 -62 -18 -55 6 3 10 12 10 18 0 7 10 18 23 26 21 14 22 13 4 -6 -11 -13
-15 -27 -11 -38 5 -13 4 -16 -4 -11 -7 4 -12 3 -12 -1 0 -5 -17 -10 -37 -11
-66 -5 -49 -12 27 -12 80 0 167 -21 490 -116 521 -155 1190 -393 1190 -424 0
-3 -245 -330 -545 -725 l-545 -719 38 -41 c100 -107 93 -108 -14 0 -66 66
-178 192 -249 280 -71 88 -132 162 -135 165 -8 7 -93 114 -108 136 -7 11 -47
69 -90 129 -81 115 -154 231 -217 350 -46 86 -63 105 -82 98 -12 -5 -12 -7 -2
-14 7 -4 16 -6 20 -3 4 2 11 -1 15 -7 4 -7 3 -9 -3 -6 -6 4 -19 0 -29 -8 -18
-13 -17 -14 6 -8 22 6 23 4 12 -9 -10 -13 -9 -18 4 -29 14 -12 13 -14 -8 -22
-19 -8 -20 -11 -6 -14 16 -4 15 -7 -6 -30 -26 -28 -25 -56 1 -46 11 4 14 2 9
-5 -4 -7 -13 -12 -21 -12 -8 0 -17 -4 -20 -10 -3 -5 0 -7 8 -4 9 3 16 -3 20
-16 4 -17 3 -19 -8 -10 -9 8 -15 8 -20 0 -3 -6 -11 -8 -16 -5 -5 4 -9 1 -9 -5
0 -6 8 -9 18 -6 9 3 24 1 32 -5 12 -8 10 -9 -7 -4 -19 5 -23 2 -23 -14 0 -12
-3 -21 -8 -21 -4 0 -13 -9 -20 -20 -15 -24 -9 -26 12 -4 14 13 16 13 16 1 0
-9 -6 -18 -12 -20 -8 -3 -6 -6 5 -6 9 -1 17 -6 17 -12 0 -5 -4 -8 -9 -4 -5 3
-12 1 -16 -5 -4 -6 -12 -7 -18 -3 -7 3 -4 -3 6 -14 17 -19 17 -22 2 -37 -10
-10 -12 -16 -5 -16 7 0 9 -7 6 -16 -4 -9 -1 -22 4 -30 9 -9 6 -15 -8 -23 -11
-6 -22 -7 -26 -3 -4 3 -4 -1 0 -11 3 -9 13 -17 21 -17 8 0 11 5 8 10 -3 6 -1
10 4 10 14 0 14 -17 1 -25 -14 -9 -1 -27 13 -19 7 4 7 1 -1 -7 -11 -12 -16
-11 -29 6 -15 19 -15 19 -9 1 4 -11 1 -23 -6 -29 -9 -6 -8 -7 5 -3 9 3 17 0
17 -6 0 -6 7 -5 18 3 16 13 16 12 3 -4 -9 -12 -22 -16 -35 -13 -19 5 -20 4 -4
-8 10 -7 15 -16 11 -19 -3 -4 0 -7 8 -7 10 -1 9 -3 -3 -11 -10 -5 -18 -19 -18
-29 0 -21 -15 -27 -25 -10 -3 6 -2 10 3 10 5 0 12 9 15 20 3 11 1 20 -4 20 -5
0 -9 -7 -9 -15 0 -28 -19 -15 -58 38 -29 37 -37 56 -30 65 7 8 7 17 -2 27 -9
11 -9 15 -1 15 9 0 9 5 0 22 -10 18 -9 20 6 14 15 -5 16 -4 5 9 -7 8 -8 15 -2
15 5 0 13 7 16 16 4 10 2 13 -7 8 -9 -6 -9 -4 -1 7 6 8 10 28 9 46 0 17 2 30
6 28 3 -3 6 17 5 43 -1 37 3 46 14 44 12 -3 13 -1 3 9 -7 7 -13 17 -13 22 0 4
6 5 13 1 9 -6 9 -5 -1 8 -10 12 -10 18 2 27 8 7 13 24 11 41 -2 16 0 32 6 36
5 3 7 14 4 24 -3 10 -2 21 3 24 5 3 8 21 7 41 0 19 2 35 6 35 4 0 5 9 2 20 -3
13 1 22 12 26 13 5 14 9 3 15 -11 7 -10 11 2 19 13 8 13 10 1 10 -11 0 -12 3
-4 11 6 6 9 18 6 25 -3 8 3 26 12 40 9 15 12 23 6 20 -7 -4 -11 0 -11 12 0 10
-23 74 -50 142 -76 187 -87 289 -41 378 40 77 133 133 244 147 53 7 57 9 58
34 1 14 2 31 3 36 4 21 36 84 46 90 6 4 8 11 5 16 -8 11 75 12 94 0z m17599
-450 c12 -11 22 -22 22 -26 0 -3 -149 -181 -331 -396 l-330 -389 -3452 -2
-3452 -3 -1825 -2402 c-1004 -1321 -1830 -2403 -1836 -2403 -22 0 -374 159
-374 170 0 3 322 425 715 936 l715 929 123 17 c67 9 165 22 219 28 l96 12
1067 1404 1067 1404 1181 0 1182 0 128 180 129 180 1319 0 1319 0 0 -180 0
-180 823 0 824 0 313 370 c172 204 318 370 324 370 6 -1 21 -9 34 -19z
m-16013 -91 c-32 -44 -60 -79 -62 -76 -3 3 5 20 18 38 60 88 92 129 96 124 3
-2 -21 -41 -52 -86z m-1899 -888 c13 -9 26 -54 13 -46 -5 3 -9 11 -9 19 0 8
-8 19 -17 24 -10 6 -13 10 -8 11 6 0 15 -4 21 -8z m-2 -48 c3 -8 2 -12 -4 -9
-6 3 -10 10 -10 16 0 14 7 11 14 -7z m-30 -282 c3 -5 -1 -9 -9 -9 -8 0 -12 4
-9 9 3 4 7 8 9 8 2 0 6 -4 9 -8z m2376 -1712 c19 -18 8 -11 -25 14 -33 25 -76
59 -95 76 -19 18 -8 11 25 -14 33 -25 76 -59 95 -76z m61 -47 c13 -16 12 -17
-3 -4 -17 13 -22 21 -14 21 2 0 10 -8 17 -17z m89 -70 c0 -7 -58 36 -66 49 -4
7 9 -1 29 -16 20 -16 37 -30 37 -33z m530 -399 c0 -3 -13 4 -30 16 -16 12 -30
24 -30 26 0 3 14 -4 30 -16 17 -12 30 -24 30 -26z m7090 -1134 c41 -45 408
-485 521 -625 380 -468 549 -818 549 -1133 0 -158 -34 -223 -151 -286 -117
-64 -408 -86 -679 -51 -325 42 -865 142 -1025 190 -44 13 -208 63 -365 111
-157 47 -293 89 -302 91 -10 3 -18 9 -18 14 0 6 990 1373 1272 1757 l39 53 67
-47 c37 -25 78 -59 92 -74z m1016 -632 c156 -158 283 -309 362 -426 79 -117
78 -116 -93 83 -205 238 -344 396 -399 453 -28 28 -46 52 -40 52 6 0 83 -73
170 -162z"/>
<path d="M6640 13280 c-12 -7 -10 -9 8 -7 12 0 22 5 22 9 0 11 -12 10 -30 -2z"/>
<path d="M6630 13172 c0 -5 7 -9 15 -9 8 0 12 4 9 9 -3 4 -9 8 -15 8 -5 0 -9
-4 -9 -8z"/>
<path d="M6599 13043 c-13 -17 -13 -17 6 -3 11 8 22 16 24 17 2 2 0 3 -6 3 -6
0 -17 -8 -24 -17z"/>
<path d="M6570 12990 c-13 -8 -12 -10 3 -10 9 0 17 5 17 10 0 12 -1 12 -20 0z"/>
<path d="M6565 12840 c-3 -5 -1 -10 4 -10 6 0 11 5 11 10 0 6 -2 10 -4 10 -3
0 -8 -4 -11 -10z"/>
<path d="M6588 10922 c-57 -76 -88 -126 -88 -143 0 -21 301 -786 1469 -3737
l128 -324 709 919 c389 505 730 946 756 979 l48 62 -143 98 c-382 264 -675
476 -907 658 -68 53 -126 96 -131 96 -10 0 -790 -1048 -796 -1069 -2 -9 23
-77 56 -152 34 -75 61 -141 61 -147 0 -10 -68 -38 -74 -30 -2 1 -36 77 -76
168 -54 123 -69 169 -62 181 6 9 193 261 417 560 l406 544 -33 27 c-18 14
-103 81 -188 149 -423 335 -894 744 -1286 1116 -94 90 -173 163 -175 162 -2 0
-43 -53 -91 -117z"/>
<path d="M10752 7627 c-253 -340 -1393 -1868 -1793 -2404 l-368 -492 41 -83
c72 -145 868 -1817 1545 -3243 361 -759 663 -1386 671 -1392 23 -19 5280 -19
5305 -1 13 11 673 1188 1668 2973 l128 230 -2885 5 -2885 5 38 55 c40 56 2038
2805 2055 2827 7 9 5 15 -8 19 -11 4 -206 87 -434 184 -420 180 -961 432
-1257 586 l-162 84 -68 -88 c-112 -145 -356 -468 -1103 -1460 -587 -780 -710
-947 -704 -965 4 -12 19 -49 34 -82 43 -94 196 -444 809 -1856 l433 -996 126
-7 c70 -4 548 -31 1062 -62 514 -30 939 -53 945 -50 7 2 73 94 149 205 l137
201 1185 0 c651 0 1184 -3 1184 -6 0 -5 -259 -387 -319 -471 l-16 -22 -1165
-1 c-1290 0 -1047 -8 -2619 83 l-725 42 -632 1455 c-348 800 -646 1486 -663
1524 -30 67 -30 70 -13 96 19 29 1399 1860 1695 2250 103 135 187 247 187 250
0 3 -109 63 -243 134 -225 121 -957 544 -1110 642 l-67 44 -158 -213z"/>
</g>
</svg>
